<svg xmlns="http://www.w3.org/2000/svg" viewBox="0 0 610.63 544.36"><defs><style>.cls-1{fill:#fff;}</style></defs><g id="Layer_2" data-name="Layer 2"><g id="Camada_2" data-name="Camada 2"><path class="cls-1" d="M305.32,544.36a22,22,0,0,1-11.84-3.46c-19.59-12.52-88.69-58.34-155.38-122.57C48.38,331.92,1.94,250.05.06,175v-.32c0-1.46-.06-2.9-.06-4.37C0,76.39,76.39,0,170.29,0a170.8,170.8,0,0,1,135,66.52A170.78,170.78,0,0,1,440.35,0c93.89,0,170.28,76.39,170.28,170.29,0,1.54,0,3.05-.06,4.59v.1c-1.88,75.07-48.32,156.94-138,243.35-66.7,64.23-135.8,110.05-155.39,122.57A22,22,0,0,1,305.32,544.36ZM44,173.92c1.57,62.2,44.65,135.76,124.58,212.74,54,52,111,92.18,136.72,109.43,25.75-17.25,82.73-57.44,136.72-109.43,79.93-77,123-150.55,124.58-212.74,0-1.22,0-2.42,0-3.63A126.35,126.35,0,0,0,325.32,118a22,22,0,0,1-20,12.87h0a22,22,0,0,1-20-12.87A126.35,126.35,0,0,0,44,170.29c0,1.17,0,2.32,0,3.5Zm544.58.51h0Z"></path></g></g></svg>