<svg xmlns="http://www.w3.org/2000/svg" viewBox="0 0 570.18 531.43"><defs><style>.cls-1{fill:#fff;}</style></defs><g id="Layer_2" data-name="Layer 2"><g id="Camada_2" data-name="Camada 2"><path class="cls-1" d="M504.67,531.43H65.51a13.84,13.84,0,0,1-13.84-13.85v-247a13.85,13.85,0,1,1,27.69,0v233.2H490.82V270.54a13.85,13.85,0,1,1,27.69,0v247A13.84,13.84,0,0,1,504.67,531.43Z"></path><path class="cls-1" d="M246.34,531.43a13.85,13.85,0,0,1-13.85-13.85V254.68a13.85,13.85,0,1,1,27.7,0v262.9A13.85,13.85,0,0,1,246.34,531.43Z"></path><path class="cls-1" d="M207.59,415.18a13.84,13.84,0,0,1-13.84-13.84V388.42a13.85,13.85,0,0,1,27.69,0v12.92A13.85,13.85,0,0,1,207.59,415.18Z"></path><path class="cls-1" d="M440.09,492.68a13.84,13.84,0,0,1-9.79-23.63l25.83-25.84a13.85,13.85,0,0,1,19.58,19.58l-25.83,25.84A13.83,13.83,0,0,1,440.09,492.68Z"></path><path class="cls-1" d="M375.5,492.68a13.84,13.84,0,0,1-9.79-23.63l90.42-90.42a13.85,13.85,0,0,1,19.58,19.58l-90.42,90.42A13.79,13.79,0,0,1,375.5,492.68Z"></path><path class="cls-1" d="M491.75,286a65.42,65.42,0,0,1-51.66-25.28,65.43,65.43,0,0,1-103.33,0,65.44,65.44,0,0,1-103.34,0,65.43,65.43,0,0,1-103.33,0A65.48,65.48,0,0,1,12.92,220.51V168.84a13.85,13.85,0,0,1,27.69,0v51.67a37.82,37.82,0,0,0,75.64,0,13.85,13.85,0,1,1,27.69,0,37.82,37.82,0,0,0,75.64,0,13.85,13.85,0,1,1,27.69,0,37.82,37.82,0,0,0,75.64,0,13.85,13.85,0,1,1,27.69,0,37.82,37.82,0,0,0,75.64,0,13.85,13.85,0,1,1,27.69,0,37.82,37.82,0,0,0,75.64,0V168.84a13.85,13.85,0,0,1,27.69,0v51.67A65.58,65.58,0,0,1,491.75,286Z"></path><path class="cls-1" d="M543.43,182.69a13.84,13.84,0,0,1-11.53-6.17l-47.56-71.33H85.84L38.28,176.52a13.85,13.85,0,1,1-23-15.36l51.67-77.5A13.85,13.85,0,0,1,78.43,77.5H491.75a13.85,13.85,0,0,1,11.52,6.16l51.67,77.5a13.85,13.85,0,0,1-11.51,21.53Z"></path><path class="cls-1" d="M491.75,105.19a13.85,13.85,0,0,1-13.84-13.85V27.69H92.27V91.34a13.85,13.85,0,1,1-27.69,0V13.85A13.85,13.85,0,0,1,78.43,0H491.75A13.85,13.85,0,0,1,505.6,13.85V91.34A13.85,13.85,0,0,1,491.75,105.19Z"></path><path class="cls-1" d="M233.42,234.35a13.84,13.84,0,0,1-13.84-13.84V207.59a13.85,13.85,0,0,1,27.69,0v12.92A13.85,13.85,0,0,1,233.42,234.35Z"></path><path class="cls-1" d="M130.09,234.35a13.84,13.84,0,0,1-13.84-13.84V207.59a13.85,13.85,0,0,1,27.69,0v12.92A13.85,13.85,0,0,1,130.09,234.35Z"></path><path class="cls-1" d="M336.76,234.35a13.85,13.85,0,0,1-13.85-13.84V207.59a13.85,13.85,0,0,1,27.69,0v12.92A13.84,13.84,0,0,1,336.76,234.35Z"></path><path class="cls-1" d="M440.09,234.35a13.85,13.85,0,0,1-13.85-13.84V207.59a13.85,13.85,0,0,1,27.69,0v12.92A13.84,13.84,0,0,1,440.09,234.35Z"></path><path class="cls-1" d="M543.42,182.69H26.76a13.85,13.85,0,0,1,0-27.69H543.42a13.85,13.85,0,0,1,0,27.69Z"></path><path class="cls-1" d="M65.51,531.43H13.85a13.85,13.85,0,1,1,0-27.69H65.51a13.85,13.85,0,1,1,0,27.69Z"></path><path class="cls-1" d="M556.33,531.43H504.67a13.85,13.85,0,1,1,0-27.69h51.66a13.85,13.85,0,1,1,0,27.69Z"></path></g></g></svg>