<svg xmlns="http://www.w3.org/2000/svg" viewBox="0 0 534.35 232.59"><defs><style>.cls-1{fill:#fff;}</style></defs><g id="Layer_2" data-name="Layer 2"><g id="Camada_2" data-name="Camada 2"><path class="cls-1" d="M427.08,69.71c7.27-12.33,13.86-15.87,14.83-23.33,1.82-14.05-11.44-16.1-17.87-8.91-6.57,7.36-8.09,21.25-2.9,32.62,1.69,3.7,4.23,2.51,5.94-.38"></path><path class="cls-1" d="M421.29,162.88c-7.27,12.33-13.87,15.87-14.83,23.33-1.83,14,11.44,16.1,17.86,8.91,6.58-7.36,8.1-21.26,2.91-32.62-1.69-3.7-4.24-2.51-5.94.38"></path><path class="cls-1" d="M532.13,99.93a43.79,43.79,0,0,0-3.79-35.83,36.27,36.27,0,0,0-13.82-14c-13.19-7-27.12-7.41-41.57-1.42,1.91-11.58-.45-24.42-9-34.08A43.81,43.81,0,0,0,431.06,0a36.24,36.24,0,0,0-19,5c-12.66,7.93-20,19.79-22,35.28C381,32.83,368.67,28.45,356,31a43.84,43.84,0,0,0-29.14,21.2,36.21,36.21,0,0,0-5.18,19c.53,14.92,7.14,27.19,19.54,36.71-11,4.13-20.91,12.6-25,24.8A43.85,43.85,0,0,0,320,168.49a36.34,36.34,0,0,0,13.82,14c13.19,7,27.13,7.41,41.57,1.42-1.9,11.58.45,24.42,9,34.08a43.8,43.8,0,0,0,32.92,14.64,36.16,36.16,0,0,0,19-5c12.65-7.92,20-19.78,22-35.28,9.08,7.43,21.38,11.82,34,9.27a43.75,43.75,0,0,0,29.14-21.19,36.11,36.11,0,0,0,5.18-19c-.53-14.92-7.14-27.2-19.54-36.71,11-4.14,20.92-12.6,25-24.81m-108.47,7.84a8.5,8.5,0,0,1,7.35,3.42,8.38,8.38,0,0,1,1.69,4.58,8.5,8.5,0,0,1-7.09,8.89l-.41.07c-.17,0-.32.07-.49.08a8.51,8.51,0,0,1-1.95-16.89l.4-.07c.17,0,.33-.07.5-.08m-6.48-82.5c11.06-9.11,26.94-6.89,34,4.35,6.33,10,7.08,22.73-7.39,37.84-6.82,7.12-15,19.87-18.13,25.59-2.81,5.21-6.18,4.2-9.41-.87-4.68-7.35-9.49-20.87-10.26-33.4-.92-15.14,4.69-28.19,11.16-33.51M362.62,49.55c11.86-.45,23.23,5.24,29.08,25.32,2.76,9.47,9.7,22.95,13.11,28.5,3.1,5,.54,7.45-5.46,7.71-8.7.37-22.82-2.22-34.06-7.82-13.57-6.77-22.07-18.16-23.45-26.41-2.36-14.13,7.51-26.78,20.78-27.3M348.85,167.88c-13.42-5-19.44-19.9-13.25-31.65,5.53-10.5,16.15-17.5,36.47-12.53,9.58,2.35,24.73,3.08,31.24,2.9,5.91-.17,6.72,3.26,3.94,8.59-4,7.72-13.33,18.65-23.8,25.58-12.65,8.38-26.76,10-34.6,7.11m82.34,39.44c-11.06,9.12-26.95,6.89-34-4.35-6.33-10-7.08-22.73,7.39-37.84,6.82-7.12,15-19.88,18.12-25.6,2.82-5.21,6.19-4.19,9.41.87,4.68,7.35,9.49,20.88,10.26,33.4.93,15.15-4.69,28.2-11.15,33.52M485.74,183c-11.86.46-23.23-5.23-29.08-25.32-2.76-9.46-9.7-23-13.11-28.49-3.1-5-.54-7.45,5.46-7.72,8.7-.38,22.83,2.22,34.06,7.82,13.58,6.77,22.07,18.16,23.45,26.42,2.37,14.13-7.5,26.77-20.78,27.29m27-86.68c-5.52,10.5-16.14,17.51-36.47,12.53-9.57-2.35-24.72-3.08-31.23-2.9-5.91.17-6.72-3.26-3.95-8.59,4-7.72,13.34-18.64,23.8-25.57,12.66-8.38,26.76-10,34.6-7.11,13.42,5,19.44,19.89,13.25,31.64"></path><path class="cls-1" d="M492.38,76.76c-9.67-2-22.46,3.62-29.7,13.79-2.36,3.32-.06,4.93,3.3,5,14.31.14,20.67,4.08,27.62,1.18,13.08-5.44,8.22-18-1.22-19.92"></path><path class="cls-1" d="M382.38,137.08c-14.3-.13-20.67-4.07-27.61-1.18-13.08,5.44-8.22,18,1.22,19.93,9.66,2,22.45-3.62,29.69-13.8,2.37-3.32.06-4.92-3.3-4.95"></path><path class="cls-1" d="M465.72,136.76c-4.05-.38-4.29,2.41-2.64,5.33,7,12.46,6.81,19.94,12.79,24.51,11.26,8.61,19.66-1.86,16.65-11-3.09-9.38-14.37-17.64-26.8-18.82"></path><path class="cls-1" d="M382.64,95.82c4.05.39,4.3-2.41,2.64-5.34-7-12.44-6.81-19.92-12.79-24.5-11.26-8.6-19.66,1.87-16.65,11,3.09,9.38,14.36,17.64,26.8,18.82"></path><path class="cls-1" d="M43.18,43.93C17.74,43.93,0,66.19,0,90.61,0,115.71,17.24,137,43.18,137s43.17-21.25,43.17-46.35c0-24.42-17.74-46.68-43.17-46.68m0,70.95c-13.06,0-19.08-12.72-19.08-24.27S30,66,43.18,66s19.07,13,19.07,24.59-6,24.27-19.07,24.27"></path><path class="cls-1" d="M176.55,127.93V58.32c0-8-5-13.39-12.05-13.39-6.69,0-10.54,3.68-12.05,10-4.52-7.36-13.89-11-22.09-11-24.26,0-39.66,22.59-39.66,46.85,0,23.93,11.89,46.18,37.15,46.18,11.05,0,19.25-4,24.27-11.37h.33v5.69c0,12.21-8.7,19.07-20.41,19.07-13.89,0-22.43-7.53-30.12-7.53-4.69,0-9.71,6-9.71,10.54,0,13.22,28.11,18.08,38,18.08,27.44,0,46.35-14.56,46.35-43.51m-43-13.05c-12.55,0-18.74-11.72-18.74-24.61C114.8,79.06,121,66,133.54,66c13.23,0,18.91,13.38,18.91,25.09s-6,23.77-18.91,23.77"></path><path class="cls-1" d="M270.6,58.32c0-8-5-13.39-12.05-13.39-6.69,0-10.54,3.68-12.05,10-4.52-7.36-13.89-11-22.09-11-24.26,0-39.66,22.59-39.66,46.85,0,23.93,11.88,46.18,37.15,46.18,11,0,19.24-4,24.27-11.37h.33v5.69c0,12.21-8.7,19.07-20.42,19.07-13.89,0-22.42-7.53-30.12-7.53-4.69,0-9.7,6-9.7,10.54,0,13.22,28.11,18.08,38,18.08,27.44,0,46.35-14.56,46.35-43.51Zm-43,56.56c-12.55,0-18.74-11.72-18.74-24.61C208.85,79.06,215,66,227.59,66c13.22,0,18.91,13.38,18.91,25.09s-6,23.77-18.91,23.77"></path><path class="cls-1" d="M293.53,35.89A13.77,13.77,0,0,0,307.08,22c0-7-6.36-13.23-13.55-13.23S280,15.14,280,22c0,7.36,6.36,13.88,13.56,13.88"></path><path class="cls-1" d="M305.58,122.57V58.32c0-8-5-13.39-12.05-13.39s-12,5.36-12,13.39v64.25c0,8,5,13.39,12,13.39s12.05-5.36,12.05-13.39"></path><path class="cls-1" d="M105.31,195.64c0-1.79,1.66-2.77,3.5-2.77,2.55,0,3.92,1.28,5.67,1.28a3,3,0,0,0,2.86-3.16c0-3.37-6-4.26-8.37-4.26-5.67,0-10.57,3.71-10.57,9.68,0,9.9,14.24,6.87,14.24,11.9,0,2.09-1.53,3.67-4.35,3.67s-5.16-1.66-7.16-1.66a2.85,2.85,0,0,0-2.86,3c0,4,7.08,4.77,10.36,4.77,5.89,0,10.92-3.79,10.92-9.89,0-11-14.24-8.2-14.24-12.59"></path><path class="cls-1" d="M139,186.73c-8.7,0-14.67,6.82-14.67,15.7s6,15.69,14.67,15.69,14.68-6.86,14.68-15.69c0-8.66-6.1-15.7-14.68-15.7m0,25.51c-5.42,0-8-4.61-8-9.81s2.69-9.81,8-9.81,8,4.64,8,9.81-2.6,9.81-8,9.81"></path><path class="cls-1" d="M173.59,204.94c4.35-.68,7.89-3.37,7.89-8.06,0-6.7-4.06-9.64-10.63-9.64h-7.5a3,3,0,0,0-3.29,3.33v24a3.2,3.2,0,1,0,6.4,0v-9.26h.09L176,216.76a3.23,3.23,0,0,0,5.67-2.17,2.78,2.78,0,0,0-.85-1.88Zm-7.13-4.26v-7.55h4.39c2.35,0,4,1.32,4,3.75a3.63,3.63,0,0,1-4,3.8Z"></path><path class="cls-1" d="M207.61,187a3.17,3.17,0,0,0-2.89,2.1l-6.62,17.74-6.61-17.74a3.19,3.19,0,0,0-6.19,1,4,4,0,0,0,.3,1.57l9.34,23.76c.56,1.37,1.28,2.48,3.16,2.48s2.6-1.11,3.16-2.48l9.34-23.76a4,4,0,0,0,.3-1.57,3.19,3.19,0,0,0-3.29-3.08"></path><path class="cls-1" d="M230.31,211.73h-7.9v-6.49h7a2.94,2.94,0,0,0,3.12-2.94,2.89,2.89,0,0,0-3.12-3h-7v-6.22h7.52a2.89,2.89,0,0,0,3-2.95,2.84,2.84,0,0,0-3-2.94H219.34c-2.26,0-3.32,1.58-3.32,3.71v23.46a3.11,3.11,0,0,0,3.28,3.2h11a2.89,2.89,0,0,0,3-2.94,2.84,2.84,0,0,0-3-2.94"></path><path class="cls-1" d="M256,187.24h-15.7a2.85,2.85,0,0,0-2.89,2.94,2.76,2.76,0,0,0,2.89,2.95H245v21.41a3.2,3.2,0,1,0,6.39,0V193.13H256a2.77,2.77,0,0,0,2.91-2.95,2.86,2.86,0,0,0-2.91-2.94"></path><path class="cls-1" d="M278.15,211.73h-7.89v-6.49h7a2.93,2.93,0,0,0,3.11-2.94,2.89,2.89,0,0,0-3.11-3h-7v-6.22h7.51a2.9,2.9,0,0,0,3-2.95,2.84,2.84,0,0,0-3-2.94H267.19c-2.27,0-3.33,1.58-3.33,3.71v23.46a3.11,3.11,0,0,0,3.28,3.2h11a2.88,2.88,0,0,0,3-2.94,2.84,2.84,0,0,0-3-2.94"></path><path class="cls-1" d="M293.11,195.64c0-1.79,1.67-2.77,3.5-2.77,2.56,0,3.93,1.28,5.68,1.28a3,3,0,0,0,2.85-3.16c0-3.37-6-4.26-8.36-4.26-5.67,0-10.57,3.71-10.57,9.68,0,9.9,14.24,6.87,14.24,11.9,0,2.09-1.53,3.67-4.35,3.67s-5.16-1.66-7.16-1.66a2.85,2.85,0,0,0-2.86,3c0,4,7.08,4.77,10.36,4.77,5.89,0,10.92-3.79,10.92-9.89,0-11-14.25-8.2-14.25-12.59"></path></g></g></svg>