<svg xmlns="http://www.w3.org/2000/svg" viewBox="0 0 497.65 581.58"><defs><style>.cls-1{fill:#fff;}</style></defs><g id="Layer_2" data-name="Layer 2"><g id="Camada_2" data-name="Camada 2"><path class="cls-1" d="M99.14,334.76v155.5a12.87,12.87,0,0,0,12.65,12.84h62.06l25.47,57.38v0c2.08,4.67,9.53,7.77,14.29,5.85l106.72-42.9q-.06,22.86-.13,45.7c0,16.46,25.43,16.6,25.48.19q.07-21.93.13-43.85,0-6.15,0-12.29l0-10.11v-1.27c0-3.09.39-6.69-.42-9.72a11.42,11.42,0,0,0-.64-1.76,13.45,13.45,0,0,0-2.06-3.16c-1.26-1.49-2.75-2.79-4.18-4.27-1.59-1.65-3.13-3.44-4.63-5.31a89.68,89.68,0,0,1-5.44-7.54h0a101.87,101.87,0,0,1-9.35-18.22c-.62-1.59-1.19-3.18-1.73-4.78a101.64,101.64,0,0,1-1.76-60.89,110.31,110.31,0,0,1,4.48-12.52c.38-.91.78-1.82,1.19-2.72,1.54-3.43,3.21-6.8,5-10.11,2.48-4.65,6.71-9.71,5.68-15.29a10.68,10.68,0,0,0-.36-1.4q-9.39-27-18.76-54.08l-1.61-4.64h0q-4.14-11.93-8.27-23.85l-10.2-29.38-5.2-15c-.74-2.12-1.47-4.24-2.21-6.37-.17-.51-.32-1-.44-1.55-.06-.24-.13-.67-.19-1-.1-1-.17-2-.23-3-.64-11,.65-22.72,4.75-33.09.54-1.36,1.11-2.71,1.75-4a21.08,21.08,0,0,1,1.77-2.76C296,161,302.38,153.6,307.62,151c3.07-1.52,5.73-1.41,7.1,1.89q1.78,4.28,3.56,8.55l2.66,6.39q12.27,29.44,24.53,58.89,2.68,6.41,5.35,12.83,3.69,8.88,7.4,17.76,6.36,15.3,12.74,30.6,9.78,23.5,19.58,47c1.75,4.21,4.76,7.62,8.71,8.91a11.9,11.9,0,0,0,6.89.09c6-1.61,11.69-9.17,9-15.6L371,222.22V189l87.35,35.9c-.46-.13-.47,0,1.57,1.16,3.28,1.86,6.77,3.56,9.69,6,1.67,1.39,2.59,2.43,2.59,4.45V569c0,16.46,25.49,16.6,25.49.19V235.59c0-17.64-17.07-28.91-31.7-34.92l-95-39V12.83a12,12,0,0,0-3.16-8.49A11.6,11.6,0,0,0,358.31,0H112A12.87,12.87,0,0,0,99.14,12.65V59.86L9.2,96C1,99.33-2.13,106.58,1.51,114.77Zm117.8,203q-7.69-17.34-15.38-34.67H303.19ZM292.8,101.08v29.19a60.54,60.54,0,0,0-16.07,13.57,67.17,67.17,0,0,0-6,8.28A78.69,78.69,0,0,0,261.8,174a101.76,101.76,0,0,0-1.6,41.23c.24,1.36.53,2.71.87,4.07a46.11,46.11,0,0,0-9.1-4.64,47.85,47.85,0,0,0-16.92-3.05c-24.36,0-44.18,17.94-44.18,40a36.5,36.5,0,0,0,.79,7.5,39.38,39.38,0,0,0,14.59,22.79,46.76,46.76,0,0,0,28.8,9.7c1.34,0,2.67-.07,4-.17a46.24,46.24,0,0,0,26.66-11.05,40.29,40.29,0,0,0,9.8-12.7h0a34.68,34.68,0,0,0,1.49-3.5l3.64,10.48h0l7.24,20.89h0L305.36,346A134.72,134.72,0,0,0,287,405.89c-12.33,4.73-21.84,14.31-25.64,26.08H208.79c-3.32-10.31-11-18.94-21.2-24.1a47.83,47.83,0,0,0-10.3-3.81V384.67h0V321.86h0V100.63A46.92,46.92,0,0,0,192,94.3a41.13,41.13,0,0,0,16.84-21.57h52.52c3.47,10.76,11.74,19.69,22.56,24.76a47.69,47.69,0,0,0,8.93,3.14ZM253.75,251.55a11.21,11.21,0,0,1-1.08,4.73c-2.6,5.63-9.61,9.78-17.62,9.78-10.14,0-18.7-6.65-18.7-14.51a11.39,11.39,0,0,1,1.35-5.29c2.8-5.34,9.61-9.23,17.35-9.23C245.19,237,253.75,243.68,253.75,251.55ZM124.63,392.19V25.48H345.47V151.9a10.6,10.6,0,0,0-3.55.61l-1.35-3.25c-4.54-10.9-10.23-20.08-22.29-23.14V76.82H304.47v-.27c-8.12,0-15.25-4.12-18.12-9.77V47.25H183.75V66.78c-2.87,5.65-10,9.77-18.12,9.77v.27H151.81v229h0v122h13.82v.28a24.73,24.73,0,0,1,2.74.17c7,.81,12.84,4.59,15.38,9.59v19.54h102.6V437.91a14.74,14.74,0,0,1,2-3c.53,3.34,1.15,6.68,1.94,10,.91,3.85,2.05,7.77,3.39,11.7h0a131.06,131.06,0,0,0,9.29,21H124.63ZM99.14,87.12V272.34L29.39,115.16Z"></path><path class="cls-1" d="M243,131.58h0a20.3,20.3,0,0,0-7.94-1.62,19.79,19.79,0,0,0-16.68,8.94h0a17.91,17.91,0,0,0-2.9,9.74c0,8.89,6.56,16.35,15.31,18.21h0a20.12,20.12,0,0,0,4.28.47,19.58,19.58,0,0,0,18.37-12.25h0a17.71,17.71,0,0,0,1.22-6.43A18.68,18.68,0,0,0,243,131.58Zm-7.94,23.86c-3.19,0-5.89-3.11-5.89-6.8s2.7-6.8,5.89-6.8,5.89,3.11,5.89,6.8S238.24,155.44,235.05,155.44Z"></path><path class="cls-1" d="M235.05,373.13c10.8,0,19.59-8.38,19.59-18.68s-8.79-18.67-19.59-18.67-19.59,8.38-19.59,18.67S224.25,373.13,235.05,373.13Zm0-25.48c3.19,0,5.89,3.12,5.89,6.8s-2.7,6.81-5.89,6.81-5.89-3.12-5.89-6.81S231.86,347.65,235.05,347.65Z"></path></g></g></svg>