<svg xmlns="http://www.w3.org/2000/svg" viewBox="0 0 651.38 531.6"><defs><style>.cls-1{fill:#fff;}</style></defs><g id="Layer_2" data-name="Layer 2"><g id="Camada_2" data-name="Camada 2"><path class="cls-1" d="M203.32,528.13a31.82,31.82,0,0,1-31.09-25.29l-23.11-111a12.85,12.85,0,0,1,10-15.21l37-7.7a12.86,12.86,0,0,1,15.21,10l23.11,111a31.75,31.75,0,0,1-24.61,37.57A32.05,32.05,0,0,1,203.32,528.13Zm-26.41-129,20.5,98.44a6,6,0,1,0,11.83-2.46L188.75,396.7Z"></path><path class="cls-1" d="M124.56,241.62c-14.18,0-29.43-9.59-34-30-3-13.36-3.49-25.62-4-36.44-.37-8.44-.68-15.73-2-22.16a3,3,0,0,0-1.05-2,1.06,1.06,0,0,0-.74-.17c-1.72.46-4.45,4.3-6.65,7.38-4.52,6.35-10.72,15-22.05,17.39-12.58,2.63-21.82-4.09-28.56-9-2.65-1.92-6.65-4.85-8-4.58a12.86,12.86,0,1,1-4.67-25.29c12.19-2.24,21.19,4.3,27.77,9.08,2.85,2.07,6.77,4.9,8.2,4.62s4.41-4.42,6.35-7.15c4.33-6.07,10.26-14.38,20.82-17.26a26.79,26.79,0,0,1,21,3.05,28.27,28.27,0,0,1,12.79,18.64c1.76,8.48,2.13,17.14,2.53,26.3.43,10.24.89,20.82,3.36,32,1.75,7.86,6.24,10.58,9.9,9.8,4.63-1,6.62-7.07,4.94-15.12-2.59-12.46-6.47-21.9-9.89-30.22-2.89-7-5.62-13.68-7.13-20.92a27.33,27.33,0,0,1,4-21.15,27,27,0,0,1,17.56-11.47c10.72-1.88,18,2.6,22.42,5.27l.62.38c.69-.76,1.5-1.75,2.11-2.5,3.57-4.39,9-11,18.54-12,11.33-1.13,18.61,7.31,23.93,13.48a67.45,67.45,0,0,0,4.94,5.32,72.66,72.66,0,0,0,3.87-9.31c3.69-10.12,8.74-24,23.18-27a12.86,12.86,0,0,1,5.82,25c-1.52,1.64-3.58,7.3-4.84,10.75-3.69,10.14-9.27,25.46-25.35,27-13,1.25-21.5-8.54-27.08-15-.72-.83-1.62-1.87-2.47-2.8l-.59.72c-3.39,4.16-8.5,10.45-17.4,12.31-8.48,1.76-14.86-2.13-18.68-4.46-3.13-1.92-3.64-2.06-4.61-1.89-1.15.33-.88,1.62-.79,2.05,1,4.91,3.21,10.23,5.74,16.39,3.66,8.89,8.21,20,11.29,34.75,5.25,25.25-8.45,42-24.71,45.5A30.6,30.6,0,0,1,124.56,241.62Z"></path><path class="cls-1" d="M115.61,408.06a73.83,73.83,0,0,1-71.8-58.41L2.66,152a126.26,126.26,0,0,1,247.22-51.47L291,298.18c7.69,37-14.54,74.37-50.61,85.17h0a697,697,0,0,1-116.21,24.19A71.26,71.26,0,0,1,115.61,408.06ZM126.48,25.72A100.72,100.72,0,0,0,27.84,146.79L69,344.41A47.84,47.84,0,0,0,121.13,382a671.88,671.88,0,0,0,111.92-23.3,47.83,47.83,0,0,0,32.8-55.29L224.71,105.8a100.64,100.64,0,0,0-98.23-80.08ZM236.73,371h0Z"></path><path class="cls-1" d="M448.11,531.6a32.18,32.18,0,0,1-6.53-.68h0A31.8,31.8,0,0,1,417,493.35l23.12-111a12.85,12.85,0,0,1,15.2-10l37,7.7a12.87,12.87,0,0,1,10,15.21l-23.12,111a31.79,31.79,0,0,1-31,25.3Zm-1.29-25.86a6,6,0,0,0,7.15-4.68l20.49-98.43-11.83-2.47-20.5,98.43a6.05,6.05,0,0,0,4.69,7.15Z"></path><path class="cls-1" d="M489.81,237.38a31.39,31.39,0,0,1-6.13-.61c-15.72-3.17-29.94-19.33-25.33-43.05,2.61-13.43,7-24.88,10.91-35,3-7.89,5.66-14.7,7-21.13a3,3,0,0,0-.18-2.2,1.06,1.06,0,0,0-.61-.46c-1.78-.26-5.8,2.17-9.05,4.12-6.68,4-15.82,9.5-27.15,7.14-12.59-2.62-18.38-12.46-22.61-19.65-1.65-2.82-4.16-7.09-5.48-7.39a12.86,12.86,0,0,1,5.81-25c12.08,2.8,17.72,12.4,21.84,19.41,1.79,3,4.24,7.21,5.68,7.51s5.81-2.3,8.67-4c6.4-3.84,15.15-9.1,26-7.52a26.8,26.8,0,0,1,18,11.17,28.2,28.2,0,0,1,4.29,22.18c-1.77,8.49-4.88,16.57-8.18,25.13-3.68,9.56-7.49,19.44-9.67,30.64-1.54,7.91,1.48,12.2,5.16,12.94,4.63.93,8.9-3.84,10.57-11.88,2.59-12.47,2.8-22.67,3-31.66.16-7.61.31-14.79,1.81-22a27.37,27.37,0,0,1,12.1-17.8,27,27,0,0,1,20.68-3.5c10.58,2.56,15.51,9.59,18.45,13.78l.42.59c.94-.41,2.07-1,2.94-1.45,5-2.59,12.61-6.51,21.77-3.58,10.83,3.47,14.15,14.13,16.57,21.92a66.85,66.85,0,0,0,2.4,6.85,73,73,0,0,0,7.27-7c7.42-7.81,17.58-18.51,32-15.5a12.86,12.86,0,0,1-4.67,25.28c-2,.9-6.19,5.27-8.72,7.93-7.43,7.83-18.66,19.64-34,14.64-12.47-4.07-16.3-16.41-18.84-24.57-.33-1.06-.74-2.36-1.15-3.56l-.83.43c-4.77,2.47-12,6.19-20.86,4.34-8.49-1.77-12.78-7.89-15.35-11.54-2.11-3-2.51-3.34-3.47-3.58-1.17-.15-1.46,1.14-1.54,1.57-1,4.91-1.15,10.66-1.28,17.32-.2,9.61-.45,21.57-3.53,36.37C519.89,227.05,504.52,237.37,489.81,237.38Z"></path><path class="cls-1" d="M535.76,411.52a71.22,71.22,0,0,1-8.59-.52h0A698,698,0,0,1,411,386.81c-36.08-10.79-58.31-48.2-50.61-85.17L401.5,104A126.26,126.26,0,0,1,648.71,155.5L607.56,353.12A73.82,73.82,0,0,1,535.76,411.52ZM524.9,29.18a100.64,100.64,0,0,0-98.23,80.09L385.52,306.88a47.85,47.85,0,0,0,32.81,55.29,670.78,670.78,0,0,0,111.91,23.31h0a47.84,47.84,0,0,0,52.15-37.6l41.15-197.62A100.72,100.72,0,0,0,524.9,29.18Z"></path></g></g></svg>